# xmcd CD database file
#
# Track frame offsets:
#	150
#	16777
#	33862
#	52564
#	74107
#	94937
#	113812
#	137167
#	159757
#	181257
#	204195
#
# Disc length: 2997 seconds
#
# Revision: 0
# Processed by: cddbd v1.5PL3 Copyright (c) Steve Scherf et al.
# Submitted via: CDex 1.50beta8
#
DISCID=820bb30b
DTITLE=THE WATER OF LIFE - コクハク
DYEAR=1998
DGENRE=JPop
TTITLE0=アリガトウ
TTITLE1=スイッチON
TTITLE2=迷惑
TTITLE3=風のすみか
TTITLE4=うそ
TTITLE5=Cross
TTITLE6=First Morning
TTITLE7=パッチワーク
TTITLE8=二人乗り
TTITLE9=水の言葉
TTITLE10=告白
EXTD=YEAR: 1998
EXTT0=
EXTT1=
EXTT2=
EXTT3=
EXTT4=
EXTT5=
EXTT6=
EXTT7=
EXTT8=
EXTT9=
EXTT10=
PLAYORDER=
